<!DOCTYPE svg PUBLIC "-//W3C//DTD SVG 1.1//EN" "http://www.w3.org/Graphics/SVG/1.1/DTD/svg11.dtd">

<!-- Uploaded to: SVG Repo, www.svgrepo.com, Transformed by: SVG Repo Mixer Tools -->
<svg fill="#ffffff" height="30px" width="30px" version="1.1" id="Layer_1" xmlns="http://www.w3.org/2000/svg" xmlns:xlink="http://www.w3.org/1999/xlink" viewBox="0 0 512.004 512.004" xml:space="preserve" stroke="#000000" stroke-width="0.005120040000000001" transform="matrix(-1, 0, 0, 1, 0, 0)rotate(0)">

<g id="SVGRepo_bgCarrier" stroke-width="0"/>

<g id="SVGRepo_tracerCarrier" stroke-linecap="round" stroke-linejoin="round" stroke="#CCCCCC" stroke-width="2.048016"/>

<g id="SVGRepo_iconCarrier"> <g> <g> <path d="M468.715,349.826C497.835,314.05,512,276.311,512,234.669c0-117.632-114.837-213.333-256-213.333S0,117.037,0,234.669 s114.837,213.333,256,213.333c37.867,0,56.299-7.232,82.432-18.283c39.509,26.688,89.835,42.389,126.315,53.781 c6.955,2.176,13.44,4.181,19.243,6.101c2.197,0.725,4.459,1.067,6.677,1.067c7.253,0,14.208-3.712,18.176-10.155 c5.184-8.405,3.883-19.264-3.093-26.261C468.885,417.367,467.925,366.551,468.715,349.826z M128,277.335 c-23.573,0-42.667-19.093-42.667-42.667c0-23.573,19.093-42.667,42.667-42.667c23.573,0,42.667,19.093,42.667,42.667 C170.667,258.242,151.573,277.335,128,277.335z M256,277.335c-23.573,0-42.667-19.093-42.667-42.667 c0-23.573,19.093-42.667,42.667-42.667s42.667,19.093,42.667,42.667C298.667,258.242,279.573,277.335,256,277.335z M384,277.335 c-23.573,0-42.667-19.093-42.667-42.667c0-23.573,19.093-42.667,42.667-42.667c23.573,0,42.667,19.093,42.667,42.667 C426.667,258.242,407.573,277.335,384,277.335z"/> </g> </g> </g>

</svg>