<svg width="25" height="25" viewBox="0 0 25 25" fill="none" xmlns="http://www.w3.org/2000/svg">
<mask id="mask0_1203_6106" style="mask-type:alpha" maskUnits="userSpaceOnUse" x="0" y="0" width="25" height="25">
<rect x="0.428955" y="0.572372" width="24" height="24" fill="#D9D9D9"/>
</mask>
<g mask="url(#mask0_1203_6106)">
<path d="M11.679 17.3223H13.1789V11.5724H11.679V17.3223ZM12.4289 9.86085C12.6578 9.86085 12.8496 9.78345 13.0044 9.62865C13.1592 9.47385 13.2366 9.28202 13.2366 9.05317C13.2366 8.82434 13.1592 8.63251 13.0044 8.4777C12.8496 8.3229 12.6578 8.2455 12.4289 8.2455C12.2001 8.2455 12.0083 8.3229 11.8535 8.4777C11.6987 8.63251 11.6213 8.82434 11.6213 9.05317C11.6213 9.28202 11.6987 9.47385 11.8535 9.62865C12.0083 9.78345 12.2001 9.86085 12.4289 9.86085ZM12.4306 22.0723C11.1167 22.0723 9.88164 21.823 8.72551 21.3243C7.56936 20.8257 6.56367 20.1489 5.70846 19.2941C4.85322 18.4392 4.17616 17.434 3.67728 16.2784C3.1784 15.1228 2.92896 13.888 2.92896 12.574C2.92896 11.2601 3.17829 10.0251 3.67696 8.86895C4.17562 7.7128 4.85237 6.70711 5.70721 5.8519C6.56206 4.99666 7.5673 4.3196 8.72293 3.82072C9.87855 3.32184 11.1133 3.0724 12.4273 3.0724C13.7412 3.0724 14.9762 3.32173 16.1324 3.8204C17.2885 4.31906 18.2942 4.99581 19.1494 5.85065C20.0046 6.7055 20.6817 7.71074 21.1806 8.86637C21.6795 10.022 21.9289 11.2568 21.9289 12.5707C21.9289 13.8846 21.6796 15.1197 21.1809 16.2758C20.6822 17.4319 20.0055 18.4376 19.1507 19.2928C18.2958 20.1481 17.2906 20.8251 16.1349 21.324C14.9793 21.8229 13.7445 22.0723 12.4306 22.0723ZM12.4289 20.5724C14.6623 20.5724 16.5539 19.7974 18.1039 18.2474C19.6539 16.6974 20.4289 14.8057 20.4289 12.5724C20.4289 10.339 19.6539 8.44737 18.1039 6.89737C16.5539 5.34737 14.6623 4.57237 12.4289 4.57237C10.1956 4.57237 8.30393 5.34737 6.75393 6.89737C5.20393 8.44737 4.42893 10.339 4.42893 12.5724C4.42893 14.8057 5.20393 16.6974 6.75393 18.2474C8.30393 19.7974 10.1956 20.5724 12.4289 20.5724Z" fill="black"/>
</g>
</svg>
